<?xml version="1.0" standalone="no"?>
<!DOCTYPE svg PUBLIC "-//W3C//DTD SVG 20010904//EN"
 "http://www.w3.org/TR/2001/REC-SVG-20010904/DTD/svg10.dtd">
<svg version="1.0" xmlns="http://www.w3.org/2000/svg"
 width="512.000000pt" height="512.000000pt" viewBox="0 0 512.000000 512.000000"
 preserveAspectRatio="xMidYMid meet">

<g transform="translate(0.000000,512.000000) scale(0.100000,-0.100000)"
fill="#000000" stroke="none">
<path d="M2466 5028 c-121 -23 -260 -120 -321 -224 -29 -49 -63 -64 -104 -46
-14 6 -54 22 -89 37 -237 99 -524 -29 -623 -276 -11 -30 -24 -92 -29 -138 -9
-98 -26 -121 -90 -121 -156 0 -323 -93 -409 -229 -90 -141 -96 -333 -14 -495
31 -61 22 -89 -42 -129 -62 -40 -149 -136 -179 -201 -37 -78 -49 -147 -44
-248 5 -73 11 -99 41 -163 40 -83 117 -173 183 -211 23 -14 47 -37 54 -53 10
-25 8 -35 -13 -77 -82 -162 -76 -354 14 -495 84 -132 216 -210 386 -228 l62
-6 -284 -493 c-163 -281 -285 -503 -285 -517 0 -29 32 -65 58 -65 10 0 162 29
337 64 176 35 331 66 345 68 23 3 28 -7 140 -337 103 -304 118 -341 143 -355
47 -26 71 -2 167 165 48 83 166 288 264 457 l177 307 55 -25 c122 -54 266 -54
388 0 l55 25 177 -307 c338 -585 350 -607 378 -622 23 -13 29 -13 54 0 24 14
39 51 142 355 112 329 117 340 140 337 14 -2 168 -32 343 -68 176 -35 327 -64
338 -64 27 0 59 35 59 64 0 14 -125 241 -285 518 l-284 493 62 6 c131 14 220
52 303 131 165 156 202 384 97 592 -21 42 -23 52 -13 77 7 16 31 39 54 53 66
38 143 128 183 211 59 125 58 282 -3 411 -30 65 -117 161 -179 201 -64 40 -73
68 -42 129 82 162 76 354 -14 495 -86 136 -253 229 -409 229 -64 0 -81 23 -90
121 -13 135 -58 228 -159 322 -144 135 -361 163 -543 72 -79 -40 -114 -30
-151 42 -23 44 -127 138 -186 168 -95 48 -210 64 -315 43z m190 -143 c69 -20
140 -69 177 -123 59 -83 109 -129 157 -142 55 -15 122 -7 167 20 102 60 230
64 338 11 107 -53 169 -144 187 -274 5 -39 12 -87 14 -105 6 -37 62 -105 107
-128 16 -9 67 -19 115 -24 183 -19 300 -121 332 -290 13 -69 0 -141 -41 -231
-27 -59 -31 -76 -27 -132 5 -79 31 -118 119 -178 104 -70 158 -169 159 -291 0
-126 -47 -215 -159 -296 -93 -68 -114 -100 -119 -180 -4 -55 0 -72 27 -131 41
-88 53 -155 41 -226 -27 -169 -151 -278 -333 -294 -84 -8 -125 -23 -165 -61
-42 -39 -53 -68 -66 -167 -8 -59 -23 -118 -37 -148 -31 -66 -97 -130 -167
-163 -48 -23 -71 -27 -142 -27 -77 0 -93 4 -166 38 -90 41 -142 47 -202 22
-47 -20 -73 -45 -127 -121 -76 -106 -157 -148 -285 -148 -129 0 -217 46 -290
153 -94 138 -176 162 -324 94 -73 -34 -89 -38 -166 -38 -71 0 -94 4 -142 27
-115 54 -183 152 -200 286 -14 114 -24 144 -60 181 -47 48 -84 63 -175 72
-180 16 -301 121 -333 289 -13 69 0 141 41 231 27 59 31 76 27 133 -5 78 -31
117 -124 182 -105 74 -154 167 -154 293 0 122 53 218 159 290 88 60 114 99
119 178 4 56 0 73 -27 132 -41 90 -54 160 -41 230 31 169 149 272 332 291 48
5 99 15 115 24 45 23 101 91 107 128 2 18 9 66 14 105 18 130 80 221 187 274
108 53 236 49 338 -11 45 -27 112 -35 167 -20 47 13 98 59 156 141 79 112 235
164 370 124z m-1278 -3508 c137 -199 392 -269 607 -168 73 34 103 38 126 19
15 -13 89 -114 89 -122 0 -3 -402 -704 -448 -780 -3 -6 -51 125 -106 290 -88
261 -104 301 -126 311 -21 9 -74 2 -323 -49 -165 -33 -301 -58 -303 -55 -3 2
52 103 122 223 70 120 163 281 207 358 l80 139 23 -62 c13 -34 36 -80 52 -104z
m2651 -201 c111 -192 199 -351 197 -353 -2 -3 -138 22 -303 55 -249 51 -302
58 -323 49 -22 -10 -38 -50 -126 -311 l-100 -299 -213 369 c-118 203 -220 381
-228 395 -15 24 -13 28 23 80 64 93 76 96 179 48 258 -121 567 9 661 278 10
29 22 49 25 45 4 -4 97 -164 208 -356z"/>
<path d="M2440 4340 c-314 -30 -600 -162 -820 -379 -117 -115 -199 -230 -271
-376 -186 -382 -186 -798 0 -1180 192 -392 555 -666 982 -740 120 -21 344 -21
461 -1 339 61 652 256 858 536 76 104 171 295 205 415 95 331 66 661 -84 970
-161 329 -441 575 -784 690 -170 57 -375 81 -547 65z m348 -155 c224 -43 435
-152 603 -312 507 -481 506 -1272 0 -1756 -228 -218 -511 -331 -831 -331 -255
0 -456 61 -670 203 l-85 56 475 7 c612 9 604 8 663 38 206 104 198 406 -13
504 -55 25 -167 27 -222 3 -98 -42 -172 -153 -166 -250 3 -43 7 -54 29 -66 33
-18 77 -8 88 22 5 12 14 42 21 66 30 113 171 147 244 61 70 -84 23 -210 -86
-230 -24 -5 -299 -10 -612 -11 l-569 -3 -58 73 c-62 80 -148 237 -179 327 -11
31 -20 59 -20 60 0 2 435 5 968 6 l967 3 60 28 c78 37 147 104 181 181 24 51
28 74 28 142 0 72 -4 90 -32 147 -116 235 -430 271 -591 67 -45 -57 -70 -124
-73 -192 -2 -59 21 -88 67 -88 41 0 61 23 68 83 16 116 98 191 212 192 190 1
285 -226 151 -360 -23 -23 -59 -46 -82 -53 -31 -9 -271 -12 -1002 -12 l-960 0
-8 77 c-7 83 0 307 11 335 6 16 54 18 673 20 l667 3 55 31 c191 109 183 382
-14 487 -58 31 -184 31 -241 0 -47 -25 -106 -85 -129 -131 -46 -90 -27 -182
37 -182 17 0 37 4 43 8 16 11 34 48 34 72 0 61 66 120 135 120 106 0 171 -116
115 -207 -39 -65 -14 -63 -705 -63 -350 0 -625 4 -625 9 0 18 31 95 71 174
110 219 314 424 534 534 120 61 278 107 435 127 63 8 253 -3 338 -19z"/>
</g>
</svg>
