<?xml version="1.0" standalone="no"?>
<!DOCTYPE svg PUBLIC "-//W3C//DTD SVG 20010904//EN"
 "http://www.w3.org/TR/2001/REC-SVG-20010904/DTD/svg10.dtd">
<svg version="1.0" xmlns="http://www.w3.org/2000/svg"
 width="943.000000pt" height="933.000000pt" viewBox="0 0 943.000000 933.000000"
 preserveAspectRatio="xMidYMid meet">

<g transform="translate(0.000000,933.000000) scale(0.100000,-0.100000)"
fill="#000000" stroke="none">
<path d="M4405 9273 c-808 -66 -1502 -291 -2160 -701 -1034 -643 -1792 -1699
-2059 -2867 -89 -389 -111 -595 -111 -1040 0 -386 9 -495 61 -794 198 -1130
814 -2144 1735 -2852 730 -563 1585 -888 2519 -960 201 -15 688 -7 870 15 950
115 1752 457 2490 1063 157 129 499 476 632 643 593 744 934 1597 1008 2524
13 166 13 556 0 722 -76 955 -442 1847 -1065 2594 -116 138 -371 396 -515 520
-767 659 -1663 1036 -2670 1125 -147 13 -613 18 -735 8z m855 -97 c746 -92
1410 -333 2016 -733 167 -110 406 -291 402 -304 -2 -5 -511 -538 -1133 -1184
-621 -647 -1169 -1218 -1216 -1268 l-86 -92 -23 45 c-12 25 -76 134 -142 244
l-120 199 155 156 c85 86 162 170 171 188 20 40 21 115 2 151 -22 42 -777 790
-809 802 -36 13 -88 13 -123 0 -15 -6 -70 -52 -121 -103 l-94 -92 -47 50 c-26
28 -87 95 -137 150 -154 170 -333 351 -525 529 -327 304 -395 356 -460 355
-62 0 -83 -15 -551 -378 -25 -20 -87 -67 -137 -106 -103 -79 -132 -121 -132
-189 0 -77 23 -110 140 -194 195 -141 518 -400 665 -532 108 -98 298 -273 369
-342 l81 -77 -1267 -1268 c-718 -718 -1272 -1280 -1278 -1296 -16 -43 -12 -96
10 -141 24 -50 752 -780 793 -795 36 -14 108 -14 144 -1 16 6 564 547 1264
1247 l1236 1235 26 -33 c87 -116 297 -416 297 -426 0 -7 -721 -763 -1601
-1680 -881 -918 -1614 -1680 -1628 -1696 l-27 -27 -102 117 c-197 228 -336
418 -476 650 -336 555 -542 1158 -623 1823 -22 184 -25 779 -5 965 161 1461
984 2721 2262 3465 314 182 677 336 1025 435 306 86 549 130 950 169 108 10
727 -3 855 -18z m2676 -1260 c691 -665 1149 -1518 1318 -2461 54 -300 61 -393
61 -795 -1 -328 -4 -396 -23 -542 -114 -864 -438 -1625 -972 -2288 -42 -52
-84 -101 -92 -107 -13 -11 -31 69 -142 615 -70 345 -154 758 -186 917 -33 160
-102 500 -154 757 -53 258 -102 480 -110 495 -31 60 -87 93 -155 93 -37 0
-100 -27 -171 -75 -19 -13 -201 -128 -405 -255 -203 -128 -428 -270 -500 -315
-71 -45 -215 -136 -320 -202 -104 -66 -288 -181 -407 -256 -120 -76 -224 -140
-232 -143 -13 -5 -157 87 -951 607 -168 110 -206 123 -278 95 -34 -13 -267
-240 -1174 -1144 -1129 -1124 -1133 -1127 -1139 -1174 -11 -83 27 -156 100
-189 40 -18 142 -19 3046 -19 l3004 0 -39 -41 c-150 -156 -445 -403 -653 -546
-631 -435 -1321 -693 -2112 -790 -207 -26 -821 -25 -1030 0 -751 91 -1407 328
-2015 726 -233 152 -468 339 -662 525 l-84 81 1618 1683 c890 926 1623 1684
1628 1684 15 2 248 -389 355 -595 126 -244 102 -230 444 -246 189 -9 226 -5
271 31 33 26 64 91 65 135 0 33 -93 324 -153 478 -68 176 -160 383 -269 607
l-111 227 274 284 c151 157 706 735 1234 1286 528 550 963 1000 966 1000 3 1
73 -64 155 -143z"/>
</g>
</svg>
