<?xml version="1.0" standalone="no"?>
<!DOCTYPE svg PUBLIC "-//W3C//DTD SVG 20010904//EN"
 "http://www.w3.org/TR/2001/REC-SVG-20010904/DTD/svg10.dtd">
<svg version="1.0" xmlns="http://www.w3.org/2000/svg"
 width="170.000000pt" height="170.000000pt" viewBox="0 0 170.000000 170.000000"
 preserveAspectRatio="xMidYMid meet">

<g transform="translate(0.000000,512.000000) scale(0.100000,-0.100000)"
fill="#000000" stroke="none">
<path d="M1355 4870 c-44 -17 -46 -27 -43 -255 l3 -218 27 -20 c30 -23 67 -18
98 13 19 19 20 34 20 220 0 212 -5 240 -47 259 -27 13 -31 13 -58 1z"/>
<path d="M610 4552 c-16 -17 -30 -39 -30 -50 0 -30 48 -88 178 -214 107 -105
124 -118 155 -118 26 0 41 7 56 26 41 52 32 66 -126 225 -92 92 -158 151 -175
155 -22 5 -33 0 -58 -24z"/>
<path d="M2065 4561 c-46 -29 -273 -263 -283 -291 -22 -57 30 -112 91 -97 12
4 86 71 165 150 121 122 142 148 142 174 0 64 -62 98 -115 64z"/>
<path d="M1236 4315 c-184 -51 -338 -204 -392 -390 -26 -93 -23 -232 9 -324
80 -228 290 -381 525 -381 155 0 284 52 391 158 83 82 125 155 153 264 74 294
-105 597 -399 673 -70 18 -220 18 -287 0z"/>
<path d="M305 3825 c-32 -31 -32 -69 0 -100 24 -25 25 -25 229 -25 112 0 212
3 221 6 24 10 46 60 39 89 -13 51 -31 55 -257 55 -207 0 -208 0 -232 -25z"/>
<path d="M1992 3827 c-31 -33 -29 -80 4 -106 25 -20 39 -21 229 -21 190 0 204
1 229 21 33 26 36 79 6 109 -19 19 -33 20 -233 20 -210 0 -214 0 -235 -23z"/>
<path d="M734 3238 c-90 -91 -145 -153 -150 -171 -10 -43 22 -81 72 -85 38 -3
42 0 187 146 124 125 147 153 147 179 0 40 -36 73 -80 73 -31 0 -49 -15 -176
-142z"/>
<path d="M1798 3363 c-47 -55 -29 -89 137 -252 121 -119 136 -131 169 -131 46
0 76 29 76 72 0 29 -18 51 -147 180 -136 136 -151 148 -184 148 -22 0 -42 -7
-51 -17z"/>
<path d="M1336 3169 l-26 -20 0 -215 c0 -201 1 -215 20 -234 30 -30 83 -27
109 6 20 25 21 39 21 231 0 203 0 204 -25 228 -30 30 -64 32 -99 4z"/>
<path d="M2425 1681 c-42 -19 -1270 -894 -1317 -939 -93 -86 -67 -254 47 -319
49 -28 140 -31 186 -7 17 8 127 85 245 169 l214 154 0 -149 c0 -165 7 -192 53
-211 24 -10 34 -10 56 2 46 26 51 49 51 269 l1 205 335 240 c185 132 349 255
365 272 64 74 63 184 -4 260 -61 69 -153 91 -232 54z"/>
<path d="M4138 1691 c-34 -11 -21 -2 -708 -494 -322 -231 -600 -433 -619 -451
-18 -17 -40 -45 -47 -63 -18 -41 -18 -125 0 -166 17 -39 71 -92 109 -106 31
-12 109 -14 144 -5 11 3 124 79 250 169 l228 163 5 -165 c5 -158 6 -166 29
-184 32 -26 67 -24 96 6 25 24 25 24 25 239 l0 215 349 251 c253 181 356 261
373 288 18 30 23 51 23 109 0 63 -3 76 -30 114 -16 23 -47 51 -69 62 -43 22
-117 31 -158 18z"/>
</g>
</svg>
